<svg width="22" height="22" viewBox="0 0 22 22" fill="none" xmlns="http://www.w3.org/2000/svg">
<path fill-rule="evenodd" clip-rule="evenodd" d="M2.03541 11.2231C2.03541 16.0371 5.98603 19.9441 10.8341 19.9441L11.0803 19.9408C15.8235 19.8114 19.6328 15.9555 19.6328 11.2231C19.6328 6.41781 15.691 2.50208 10.8341 2.50208C5.98603 2.50208 2.03541 6.41781 2.03541 11.2231ZM12.5747 7.73465C12.8299 7.99628 12.8299 8.40617 12.5659 8.65908L9.97029 11.2231L12.5659 13.787C12.8299 14.0399 12.8299 14.4586 12.5747 14.7115C12.3107 14.9731 11.8972 14.9731 11.642 14.7115L8.5713 11.6853C8.44812 11.5632 8.37773 11.3975 8.37773 11.2231C8.37773 11.0486 8.44812 10.8829 8.5713 10.7608L11.642 7.73465C11.7652 7.60384 11.9324 7.54279 12.0996 7.54279C12.2756 7.54279 12.4427 7.60384 12.5747 7.73465Z" fill="#1B1E25"/>
</svg>
