<svg width="22" height="22" viewBox="0 0 22 22" fill="none" xmlns="http://www.w3.org/2000/svg">
<path fill-rule="evenodd" clip-rule="evenodd" d="M20.0583 11.351C20.0583 16.165 16.1077 20.072 11.2596 20.072L11.0135 20.0687C6.27027 19.9393 2.46094 16.0834 2.46094 11.351C2.46094 6.54574 6.40276 2.63 11.2596 2.63C16.1077 2.63 20.0583 6.54574 20.0583 11.351ZM9.51904 7.86264C9.26388 8.12427 9.26388 8.53416 9.52784 8.78707L12.1235 11.3511L9.52784 13.915C9.26388 14.1679 9.26388 14.5865 9.51904 14.8395C9.783 15.1011 10.1965 15.1011 10.4517 14.8395L13.5225 11.8133C13.6456 11.6912 13.716 11.5255 13.716 11.3511C13.716 11.1766 13.6456 11.0109 13.5225 10.8888L10.4517 7.86264C10.3285 7.73183 10.1613 7.67078 9.99417 7.67078C9.8182 7.67078 9.65102 7.73183 9.51904 7.86264Z" fill="#1B1E25"/>
</svg>
