<svg width="25" height="25" viewBox="0 0 25 25" fill="none" xmlns="http://www.w3.org/2000/svg">
<path fill-rule="evenodd" clip-rule="evenodd" d="M19.6885 19.5357C16.6324 22.5922 12.107 23.2525 8.4036 21.5398C7.85689 21.3197 7.40867 21.1418 6.98256 21.1418C5.79568 21.1489 4.31835 22.2997 3.55055 21.5328C2.78274 20.7649 3.93445 19.2864 3.93445 18.0924C3.93445 17.6662 3.7636 17.226 3.54351 16.6782C1.83002 12.9754 2.4913 8.44851 5.54745 5.39303C9.44879 1.49025 15.7872 1.49025 19.6885 5.39202C23.5969 9.30083 23.5899 15.6339 19.6885 19.5357Z" stroke="white" stroke-width="1.5" stroke-linecap="round" stroke-linejoin="round"/>
<path d="M16.558 12.8788H16.567" stroke="white" stroke-width="2" stroke-linecap="round" stroke-linejoin="round"/>
<path d="M12.5502 12.8788H12.5592" stroke="white" stroke-width="2" stroke-linecap="round" stroke-linejoin="round"/>
<path d="M8.54237 12.8788H8.55137" stroke="white" stroke-width="2" stroke-linecap="round" stroke-linejoin="round"/>
</svg>
