<svg width="33" height="36" viewBox="0 0 33 36" fill="none" xmlns="http://www.w3.org/2000/svg">
<path d="M11.5236 33.2382V27.9274C11.5236 26.5717 12.6306 25.4727 13.9962 25.4727H18.9882C19.644 25.4727 20.2729 25.7313 20.7367 26.1917C21.2004 26.652 21.4609 27.2764 21.4609 27.9274V33.2382C21.4567 33.8018 21.6794 34.3437 22.0794 34.7437C22.4794 35.1437 23.0237 35.3687 23.5914 35.3687H26.9972C28.5878 35.3728 30.1147 34.7484 31.2409 33.6332C32.3671 32.5181 33 31.004 33 29.4249V14.2953C33 13.0198 32.4304 11.8099 31.4449 10.9915L19.8591 1.80571C17.8437 0.195127 14.9561 0.247129 13.0009 1.92922L1.67955 10.9915C0.647392 11.7858 0.0304856 12.9993 0 14.2953V29.4095C0 32.7006 2.68756 35.3687 6.00283 35.3687H9.33082C10.51 35.3687 11.4684 34.4242 11.4769 33.2536L11.5236 33.2382Z" fill="#FFDF00"/>
</svg>
