<svg width="30" height="24" viewBox="0 0 30 24" fill="none" xmlns="http://www.w3.org/2000/svg">
<path opacity="0.91" d="M19.576 0.584961C18.1547 0.587058 16.8245 1.28542 16.0158 2.45423C16.3189 3.22102 16.4927 4.05015 16.4927 4.91849C16.4927 5.7741 16.2767 6.56078 15.9531 7.29844C16.7535 8.52042 18.1153 9.25743 19.576 9.25924C21.9723 9.2598 23.9149 7.31713 23.9144 4.9209C23.9136 2.52561 21.9713 0.584407 19.576 0.584961ZM23.4567 10.1602L20.8816 14.1878C21.5337 15.6108 21.9159 17.1684 21.9608 18.7983L21.9873 19.7643L21.3514 20.4893C20.433 21.5384 19.3609 22.4479 18.1885 23.2186C18.6649 23.2719 19.1479 23.3005 19.6387 23.3005C23.5295 23.3005 27.0105 21.5806 29.3849 18.8682C29.28 15.0565 26.9643 11.6557 23.4567 10.1602Z" fill="white"/>
<path opacity="0.91" d="M9.68701 0.582031C9.11742 0.582031 8.55341 0.694223 8.02718 0.912195C7.50095 1.13017 7.02281 1.44968 6.62005 1.85244C6.21729 2.2552 5.8978 2.73332 5.67983 3.25955C5.46186 3.78578 5.34967 4.34977 5.34967 4.91936C5.34967 5.48895 5.46186 6.05298 5.67983 6.57921C5.8978 7.10544 6.21729 7.58356 6.62005 7.98632C7.02281 8.38908 7.50095 8.70859 8.02718 8.92657C8.55341 9.14454 9.11742 9.25673 9.68701 9.25673C10.2566 9.25673 10.8206 9.14454 11.3468 8.92657C11.8731 8.70859 12.3512 8.38908 12.754 7.98632C13.1567 7.58356 13.4762 7.10544 13.6942 6.57921C13.9122 6.05298 14.0244 5.48895 14.0244 4.91936C14.0244 4.34977 13.9122 3.78578 13.6942 3.25955C13.4762 2.73332 13.1567 2.25516 12.754 1.8524C12.3512 1.44964 11.8731 1.13017 11.3468 0.912195C10.8206 0.694223 10.2566 0.582031 9.68701 0.582031ZM13.5669 10.1568L9.7802 16.0804L5.94267 10.161C2.432 11.6508 0.110794 15.0491 0 18.8611C2.37446 21.5756 5.85593 23.298 9.74843 23.298C13.6393 23.298 17.1203 21.5778 19.4947 18.8653C19.3898 15.0537 17.0745 11.6523 13.5669 10.1568Z" fill="white" stroke="#FF0000" stroke-width="0.004"/>
</svg>
