<svg width="37" height="41" viewBox="0 0 37 41" fill="none" xmlns="http://www.w3.org/2000/svg">
<g filter="url(#filter0_d_5062_3790)">
<path d="M18.0734 26.3653C17.9208 26.03 17.6047 25.7854 17.2223 25.7419C16.8983 25.7049 16.5812 25.6355 16.2797 25.5355C16.1445 25.49 16.0176 25.4403 15.9001 25.3872L16.0953 24.8551C16.2331 24.9166 16.3751 24.9729 16.5205 25.0238L16.5265 25.026L16.5327 25.028C16.9992 25.1821 17.4583 25.2603 17.8969 25.2603C18.3373 25.2603 18.6566 25.2012 18.9019 25.0747L18.9165 25.0671L18.9309 25.0588C19.3024 24.8456 19.5156 24.4791 19.5156 24.0532C19.5156 23.5805 19.2606 23.1881 18.8159 22.9761C18.5922 22.8673 18.2744 22.7634 17.8167 22.6496C17.3473 22.5309 16.9529 22.405 16.6471 22.2759C16.4235 22.1748 16.2296 22.0134 16.0547 21.7826C15.9043 21.5766 15.8281 21.2669 15.8281 20.8616C15.8281 20.3726 15.9658 19.969 16.2492 19.6276C16.5014 19.3286 16.8595 19.1254 17.3402 19.0114C17.6968 18.927 17.9749 18.6724 18.0999 18.3438C18.2413 18.6769 18.5421 18.9247 18.9164 18.9843C19.229 19.0341 19.5161 19.1135 19.7742 19.221L19.5946 19.7423C19.1072 19.5467 18.6276 19.4479 18.1637 19.4479C16.6232 19.4479 16.5452 20.5107 16.5452 20.7238C16.5452 21.1857 16.7946 21.5729 17.2295 21.7864L17.2417 21.7925L17.254 21.798C17.4737 21.8961 17.7854 21.9906 18.2353 22.0954C18.7004 22.2005 19.0883 22.3209 19.3931 22.4544L19.3994 22.4572L19.4057 22.4598C19.632 22.554 19.8261 22.7113 19.9991 22.9407L20.0019 22.9442L20.0047 22.9479C20.1559 23.1434 20.2327 23.4457 20.2327 23.8466C20.2327 24.3092 20.0987 24.7008 19.823 25.0438C19.5839 25.3414 19.2502 25.5473 18.8023 25.6734C18.4565 25.7709 18.1883 26.0353 18.0734 26.3653Z" fill="white"/>
<path d="M18.4697 27.7497H17.7274C17.5614 27.7497 17.4268 27.6117 17.4268 27.4413V26.8224C17.4268 26.6596 17.3033 26.5257 17.1454 26.5077C16.7696 26.465 16.406 26.3853 16.0547 26.2687C15.7134 26.1537 15.4177 26.0175 15.1676 25.8594C15.0526 25.7868 15.0108 25.6394 15.0583 25.5099L15.5675 24.1215C15.6361 23.9347 15.8573 23.8631 16.0277 23.9598C16.2577 24.0901 16.505 24.2015 16.7692 24.294C17.1631 24.4241 17.5412 24.4892 17.9031 24.4892C18.2144 24.4892 18.4369 24.4548 18.5702 24.3859C18.7036 24.3093 18.7703 24.1983 18.7703 24.0529C18.7703 23.8846 18.6814 23.7583 18.5035 23.6741C18.332 23.5899 18.0461 23.4981 17.646 23.3986C17.1314 23.2685 16.7026 23.1307 16.3596 22.9853C16.0166 22.8322 15.718 22.5872 15.4639 22.2505C15.2098 21.9061 15.0828 21.443 15.0828 20.8614C15.0828 20.1878 15.2829 19.61 15.683 19.1277C16.0437 18.7001 16.5417 18.4109 17.1772 18.2603C17.3202 18.2263 17.4268 18.099 17.4268 17.9485V17.2663C17.4268 17.096 17.5614 16.958 17.7274 16.958H18.4697C18.6357 16.958 18.7703 17.096 18.7703 17.2663V17.9095C18.7703 18.0671 18.8863 18.1983 19.038 18.2225C19.5947 18.3111 20.0838 18.479 20.5053 18.7261C20.625 18.7963 20.6724 18.9455 20.6265 19.0787L20.15 20.4614C20.0869 20.6447 19.8765 20.7223 19.7072 20.6347C19.1704 20.3572 18.6581 20.2185 18.17 20.2185C17.5919 20.2185 17.3028 20.3868 17.3028 20.7235C17.3028 20.8843 17.3887 21.0067 17.5601 21.0911C17.7317 21.1675 18.0143 21.2517 18.4082 21.3436C18.9163 21.4584 19.3452 21.5923 19.6946 21.7453C20.0439 21.8907 20.3456 22.1318 20.5998 22.4687C20.8602 22.8054 20.9905 23.2647 20.9905 23.8463C20.9905 24.4892 20.7967 25.0518 20.4091 25.534C20.0716 25.9542 19.6044 26.2484 19.0076 26.4166C18.8704 26.4553 18.7703 26.5799 18.7703 26.7257V27.4413C18.7703 27.6117 18.6357 27.7497 18.4697 27.7497Z" fill="white"/>
<path fill-rule="evenodd" clip-rule="evenodd" d="M14.7882 7.70801H21.2967C22.9637 7.70801 22.0483 10.2733 21.3734 11.8381L20.6053 13.6326L20.5015 13.8747C21.2291 13.8385 21.9486 14.0451 22.5518 14.4636C24.8087 16.5815 26.6403 19.1314 27.9436 21.97C28.4515 23.0195 28.653 24.1974 28.5238 25.3616C28.3687 28.3292 26.0474 30.6939 23.1531 30.833H12.9319C10.0368 30.6981 7.71203 28.3358 7.55367 25.3678C7.42446 24.2035 7.62594 23.0257 8.13388 21.9761C9.43873 19.1348 11.2729 16.5826 13.5331 14.4636C14.1365 14.0451 14.8558 13.8385 15.5833 13.8747L15.4631 13.5956L14.7116 11.8381C14.0396 10.2733 13.1197 7.70801 14.7882 7.70801Z" stroke="white" stroke-width="3.4375" stroke-linecap="round" stroke-linejoin="round"/>
<path d="M20.503 15.0311C21.1416 15.0311 21.6593 14.5135 21.6593 13.8749C21.6593 13.2363 21.1416 12.7186 20.503 12.7186V15.0311ZM15.5848 12.7186C14.9463 12.7186 14.4286 13.2363 14.4286 13.8749C14.4286 14.5135 14.9463 15.0311 15.5848 15.0311V12.7186ZM24.6336 13.3351C25.1869 13.0164 25.3772 12.3094 25.0584 11.7561C24.7395 11.2027 24.0327 11.0126 23.4794 11.3313L24.6336 13.3351ZM20.6068 13.6328L20.8299 14.7674L20.8333 14.7667L20.6068 13.6328ZM15.4646 13.5958L15.704 12.4646L15.6935 12.4625L15.4646 13.5958ZM12.5907 11.3212C12.0318 11.0124 11.3284 11.215 11.0195 11.7739C10.7106 12.3329 10.9133 13.0363 11.4722 13.3452L12.5907 11.3212ZM20.503 12.7186H15.5848V15.0311H20.503V12.7186ZM23.4794 11.3313C22.5128 11.8881 21.4666 12.2821 20.3803 12.499L20.8333 14.7667C22.1673 14.5003 23.4504 14.0168 24.6336 13.3351L23.4794 11.3313ZM20.3837 12.4983C18.8368 12.8025 17.2467 12.791 15.704 12.4646L15.2252 14.727C17.0727 15.118 18.9773 15.1317 20.8299 14.7674L20.3837 12.4983ZM15.6935 12.4625C14.6101 12.2437 13.5642 11.8592 12.5907 11.3212L11.4722 13.3452C12.6513 13.9968 13.9199 14.4636 15.2358 14.7292L15.6935 12.4625Z" fill="white"/>
</g>
<defs>
<filter id="filter0_d_5062_3790" x="-4" y="0" width="45" height="45" filterUnits="userSpaceOnUse" color-interpolation-filters="sRGB">
<feFlood flood-opacity="0" result="BackgroundImageFix"/>
<feColorMatrix in="SourceAlpha" type="matrix" values="0 0 0 0 0 0 0 0 0 0 0 0 0 0 0 0 0 0 127 0" result="hardAlpha"/>
<feOffset dy="4"/>
<feGaussianBlur stdDeviation="2"/>
<feComposite in2="hardAlpha" operator="out"/>
<feColorMatrix type="matrix" values="0 0 0 0 0 0 0 0 0 0 0 0 0 0 0 0 0 0 0.25 0"/>
<feBlend mode="normal" in2="BackgroundImageFix" result="effect1_dropShadow_5062_3790"/>
<feBlend mode="normal" in="SourceGraphic" in2="effect1_dropShadow_5062_3790" result="shape"/>
</filter>
</defs>
</svg>
