<svg width="31" height="32" viewBox="0 0 31 32" fill="none" xmlns="http://www.w3.org/2000/svg">
<path fill-rule="evenodd" clip-rule="evenodd" d="M2.8125 15.9991C2.8125 9.05671 8.45793 3.414 15.3903 3.414C22.3226 3.414 27.9681 9.05671 27.9681 15.9991C27.9681 22.9268 22.3226 28.5696 15.3903 28.5696C8.45793 28.5696 2.8125 22.9268 2.8125 15.9991ZM20.0043 17.2724C20.1378 17.1389 20.3078 16.9326 20.3442 16.8841C20.5385 16.6292 20.6356 16.3137 20.6356 15.9994C20.6356 15.6463 20.5263 15.3187 20.3199 15.0517C20.303 15.0348 20.2699 14.9988 20.2268 14.9518C20.146 14.8639 20.0301 14.7377 19.9193 14.627C18.9238 13.5591 16.3256 11.8117 14.9659 11.2778C14.7595 11.194 14.2374 11.0108 13.9582 10.9987C13.6911 10.9987 13.4362 11.0593 13.1933 11.1807C12.8898 11.3506 12.647 11.6176 12.5135 11.9331C12.4285 12.1515 12.2949 12.8068 12.2949 12.8189C12.1614 13.5349 12.0885 14.6998 12.0885 15.9861C12.0885 17.2129 12.1614 18.3281 12.2707 19.0562C12.2737 19.0592 12.2841 19.1113 12.3003 19.1922C12.3496 19.4381 12.4524 19.9505 12.562 20.1605C12.8291 20.6702 13.3512 20.9857 13.9096 20.9857H13.9582C14.3224 20.9735 15.0873 20.658 15.0873 20.6459C16.3742 20.112 18.9116 18.4495 19.9314 17.3452L20.0043 17.2724Z" fill="#0E1015"/>
</svg>
