<svg width="47" height="43" viewBox="0 0 47 43" fill="none" xmlns="http://www.w3.org/2000/svg">
<path d="M45.7275 33.7545L42.7903 31.7819L40.5175 28.7675L42.6487 25.7872L40.8734 24.1448L38.738 16.7093L40.2859 12.3397L39.5056 9.22672L29.3017 5.12877L26.3326 5.90768L24.9217 7.54569L22.9492 8.08171L22.4904 9.59546L18.3524 10.273L12.0531 7.15122L9.43311 1.11789L6.36735 3.24045L4.06464 2.78587L2.82974 0.826172L0.96875 1.30649L2.04942 8.94787L4.74643 13.4891L3.59719 14.7584L3.48139 18.1675L4.67769 20.1829L7.72229 22.8029L7.80372 25.9889L10.0121 29.0506L13.6141 28.4373L17.3662 35.2383L22.8078 38.493L25.6037 39.059L29.5358 36.9535L31.2896 37.9011L32.1773 40.9499L37.22 41.726L41.9026 42.0992L43.4292 41.7775L43.8537 38.9816L46.0921 37.6438L45.7275 33.7545Z" fill="white"/>
</svg>
